<?xml version="1.0" encoding="UTF-8" standalone="no"?>
<svg
   xmlns:dc="http://purl.org/dc/elements/1.1/"
   xmlns:cc="http://creativecommons.org/ns#"
   xmlns:rdf="http://www.w3.org/1999/02/22-rdf-syntax-ns#"
   xmlns:svg="http://www.w3.org/2000/svg"
   xmlns="http://www.w3.org/2000/svg"
   xmlns:sodipodi="http://sodipodi.sourceforge.net/DTD/sodipodi-0.dtd"
   xmlns:inkscape="http://www.inkscape.org/namespaces/inkscape"
   version="1.1"
   id="Capa_1"
   x="0px"
   y="0px"
   width="32.75px"
   height="32.75px"
   viewBox="0 0 32.75 32.75"
   style="enable-background:new 0 0 32.75 32.75;"
   xml:space="preserve"
   sodipodi:docname="fleche-vers-le-haut.svg"
   inkscape:version="1.0.2 (e86c870879, 2021-01-15, custom)"><metadata
   id="metadata41"><rdf:RDF><cc:Work
       rdf:about=""><dc:format>image/svg+xml</dc:format><dc:type
         rdf:resource="http://purl.org/dc/dcmitype/StillImage" /></cc:Work></rdf:RDF></metadata><defs
   id="defs39" /><sodipodi:namedview
   pagecolor="#ffffff"
   bordercolor="#666666"
   borderopacity="1"
   objecttolerance="10"
   gridtolerance="10"
   guidetolerance="10"
   inkscape:pageopacity="0"
   inkscape:pageshadow="2"
   inkscape:window-width="1920"
   inkscape:window-height="1017"
   id="namedview37"
   showgrid="false"
   inkscape:zoom="25.954198"
   inkscape:cx="8.9580882"
   inkscape:cy="19.457353"
   inkscape:window-x="1272"
   inkscape:window-y="-8"
   inkscape:window-maximized="1"
   inkscape:current-layer="Capa_1" />
<g
   id="g4">
	<path
   d="M30.434,15.938c-0.791,0.933-1.917,1.411-3.052,1.411c-0.913,0-1.834-0.312-2.587-0.951l-4.421-3.753V28.75   c0,2.209-1.791,4-4,4c-2.209,0-4-1.791-4-4V12.646l-4.42,3.754c-1.683,1.431-4.208,1.226-5.639-0.459   c-1.43-1.684-1.224-4.208,0.46-5.638l11.01-9.351c1.493-1.27,3.686-1.27,5.178,0l11.011,9.351   C31.658,11.73,31.863,14.255,30.434,15.938z"
   id="path2" />
</g>
<g
   id="g6">
</g>
<g
   id="g8">
</g>
<g
   id="g10">
</g>
<g
   id="g12">
</g>
<g
   id="g14">
</g>
<g
   id="g16">
</g>
<g
   id="g18">
</g>
<g
   id="g20">
</g>
<g
   id="g22">
</g>
<g
   id="g24">
</g>
<g
   id="g26">
</g>
<g
   id="g28">
</g>
<g
   id="g30">
</g>
<g
   id="g32">
</g>
<g
   id="g34">
</g>
<path
   style="fill:#0c1e5e;stroke-width:0.0385294;fill-opacity:1"
   d="m 15.932392,32.707359 c -1.685642,-0.177415 -3.109511,-1.470174 -3.453166,-3.1352 -0.06866,-0.332679 -0.07177,-0.703744 -0.07225,-8.644267 -3.08e-4,-4.782502 -0.01492,-8.291227 -0.03453,-8.283823 -0.01871,0.0071 -1.072898,0.895067 -2.342632,1.973341 -1.2814818,1.088249 -2.4333567,2.036412 -2.5889974,2.131125 -0.323523,0.196877 -0.7293464,0.366596 -1.1528906,0.48215 -0.2435128,0.06644 -0.4069457,0.08095 -0.9130731,0.08107 -0.541559,1.16e-4 -0.6619129,-0.01198 -0.9904298,-0.09962 -1.78747,-0.476871 -2.9973643,-2.035652 -2.9973643,-3.861687 0,-1.128439 0.4713203,-2.193227 1.3040387,-2.946031 C 3.5451661,9.6323052 13.937091,0.84578539 14.206253,0.6681823 14.580317,0.42136212 14.843259,0.30013037 15.277396,0.17432226 16.3876,-0.14740221 17.583515,0.03476693 18.551545,0.67306078 18.812867,0.84536997 29.189717,9.6214676 30.059109,10.405447 c 2.088729,1.883523 1.592834,5.294108 -0.949589,6.530925 -0.556992,0.27096 -1.004636,0.371613 -1.676579,0.376978 -0.572798,0.0046 -0.809704,-0.02815 -1.27147,-0.175631 -0.345491,-0.110343 -0.835202,-0.355767 -1.089337,-0.545932 -0.116862,-0.08745 -1.213139,-1.008566 -2.436173,-2.046934 -1.223033,-1.038368 -2.238932,-1.893644 -2.257552,-1.900614 -0.01937,-0.0073 -0.0382,3.586276 -0.044,8.399412 l -0.01014,8.412084 -0.08931,0.308236 c -0.110951,0.382943 -0.368396,0.933302 -0.587506,1.255956 -0.243679,0.358834 -0.702001,0.803868 -1.082767,1.051377 -0.568281,0.369398 -1.129991,0.568319 -1.804392,0.638999 -0.405737,0.04252 -0.395564,0.04256 -0.827902,-0.0029 z"
   id="path43" /></svg>
